<svg width="23" height="23" viewBox="0 0 23 23" fill="none" xmlns="http://www.w3.org/2000/svg">
<path d="M11.5 2.15625C6.66371 2.15625 2.875 4.36641 2.875 7.1875V15.8125C2.875 18.6336 6.66371 20.8438 11.5 20.8438C16.3363 20.8438 20.125 18.6336 20.125 15.8125V7.1875C20.125 4.36641 16.3363 2.15625 11.5 2.15625ZM18.6875 11.5C18.6875 12.3643 17.9795 13.2457 16.746 13.9186C15.357 14.676 13.4936 15.0938 11.5 15.0938C9.50637 15.0938 7.64301 14.676 6.25402 13.9186C5.02047 13.2457 4.3125 12.3643 4.3125 11.5V10.005C5.84523 11.3527 8.46598 12.2188 11.5 12.2188C14.534 12.2188 17.1548 11.3491 18.6875 10.005V11.5ZM6.25402 4.76891C7.64301 4.01152 9.50637 3.59375 11.5 3.59375C13.4936 3.59375 15.357 4.01152 16.746 4.76891C17.9795 5.44184 18.6875 6.3232 18.6875 7.1875C18.6875 8.0518 17.9795 8.93316 16.746 9.60609C15.357 10.3635 13.4936 10.7812 11.5 10.7812C9.50637 10.7812 7.64301 10.3635 6.25402 9.60609C5.02047 8.93316 4.3125 8.0518 4.3125 7.1875C4.3125 6.3232 5.02047 5.44184 6.25402 4.76891ZM16.746 18.2311C15.357 18.9885 13.4936 19.4062 11.5 19.4062C9.50637 19.4062 7.64301 18.9885 6.25402 18.2311C5.02047 17.5582 4.3125 16.6768 4.3125 15.8125V14.3175C5.84523 15.6652 8.46598 16.5312 11.5 16.5312C14.534 16.5312 17.1548 15.6616 18.6875 14.3175V15.8125C18.6875 16.6768 17.9795 17.5582 16.746 18.2311Z" fill="black"/>
</svg>
