<svg width="18" height="18" viewBox="0 0 18 18" fill="none" xmlns="http://www.w3.org/2000/svg">
<path d="M9.77101 1.5C10.6148 1.50225 11.043 1.50675 11.4128 1.51725L11.5583 1.5225C11.7263 1.5285 11.892 1.536 12.0923 1.545C12.8903 1.5825 13.4348 1.7085 13.9125 1.89375C14.4075 2.08425 14.8245 2.34225 15.2415 2.7585C15.6229 3.13342 15.918 3.58694 16.1063 4.0875C16.2915 4.56525 16.4175 5.10975 16.455 5.9085C16.464 6.108 16.4715 6.27375 16.4775 6.4425L16.482 6.588C16.4933 6.957 16.4978 7.38525 16.4993 8.229L16.5 8.7885V9.771C16.5018 10.3181 16.4961 10.8651 16.4828 11.412L16.4783 11.5575C16.4723 11.7262 16.4648 11.892 16.4558 12.0915C16.4183 12.8902 16.2908 13.434 16.1063 13.9125C15.9185 14.4133 15.6233 14.867 15.2415 15.2415C14.8665 15.6227 14.413 15.9178 13.9125 16.1063C13.4348 16.2915 12.8903 16.4175 12.0923 16.455C11.9143 16.4634 11.7363 16.4709 11.5583 16.4775L11.4128 16.482C11.043 16.4925 10.6148 16.4978 9.77101 16.4993L9.21151 16.5H8.22976C7.68245 16.5019 7.13515 16.4961 6.58801 16.4827L6.44251 16.4783C6.26446 16.4715 6.08646 16.4638 5.90851 16.455C5.11051 16.4175 4.56601 16.2915 4.08751 16.1063C3.58701 15.9183 3.13367 15.6231 2.75926 15.2415C2.37754 14.8667 2.08217 14.4132 1.89376 13.9125C1.70851 13.4347 1.58251 12.8902 1.54501 12.0915C1.53665 11.9135 1.52915 11.7355 1.52251 11.5575L1.51876 11.412C1.50493 10.8651 1.49868 10.3181 1.50001 9.771V8.229C1.49791 7.68195 1.50341 7.1349 1.51651 6.588L1.52176 6.4425C1.52776 6.27375 1.53526 6.108 1.54426 5.9085C1.58176 5.10975 1.70776 4.566 1.89301 4.0875C2.08134 3.58643 2.3773 3.13277 2.76001 2.7585C3.13432 2.37711 3.58736 2.08199 4.08751 1.89375C4.56601 1.7085 5.10976 1.5825 5.90851 1.545C6.10801 1.536 6.27451 1.5285 6.44251 1.5225L6.58801 1.518C7.1349 1.50467 7.68195 1.49892 8.22901 1.50075L9.77101 1.5ZM9.00001 5.25C8.00544 5.25 7.05162 5.64509 6.34836 6.34835C5.64509 7.05161 5.25001 8.00544 5.25001 9C5.25001 9.99456 5.64509 10.9484 6.34836 11.6517C7.05162 12.3549 8.00544 12.75 9.00001 12.75C9.99457 12.75 10.9484 12.3549 11.6517 11.6517C12.3549 10.9484 12.75 9.99456 12.75 9C12.75 8.00544 12.3549 7.05161 11.6517 6.34835C10.9484 5.64509 9.99457 5.25 9.00001 5.25ZM9.00001 6.75C9.29548 6.74995 9.58807 6.8081 9.86107 6.92113C10.1341 7.03416 10.3821 7.19985 10.5911 7.40874C10.8001 7.61764 10.9658 7.86565 11.079 8.13862C11.1921 8.41158 11.2503 8.70415 11.2504 8.99963C11.2504 9.2951 11.1923 9.58769 11.0793 9.86069C10.9662 10.1337 10.8005 10.3818 10.5916 10.5907C10.3827 10.7997 10.1347 10.9655 9.86176 11.0786C9.5888 11.1917 9.29623 11.25 9.00076 11.25C8.40402 11.25 7.83172 11.0129 7.40977 10.591C6.98781 10.169 6.75076 9.59674 6.75076 9C6.75076 8.40326 6.98781 7.83097 7.40977 7.40901C7.83172 6.98705 8.40402 6.75 9.00076 6.75M12.9383 4.125C12.6896 4.125 12.4512 4.22377 12.2753 4.39959C12.0995 4.5754 12.0008 4.81386 12.0008 5.0625C12.0008 5.31114 12.0995 5.5496 12.2753 5.72541C12.4512 5.90123 12.6896 6 12.9383 6C13.1869 6 13.4254 5.90123 13.6012 5.72541C13.777 5.5496 13.8758 5.31114 13.8758 5.0625C13.8758 4.81386 13.777 4.5754 13.6012 4.39959C13.4254 4.22377 13.1869 4.125 12.9383 4.125Z" fill="black"/>
</svg>
