<svg width="18" height="18" viewBox="0 0 18 18" fill="none" xmlns="http://www.w3.org/2000/svg">
<path d="M14.25 2.25C14.6478 2.25 15.0294 2.40804 15.3107 2.68934C15.592 2.97064 15.75 3.35218 15.75 3.75V14.25C15.75 14.6478 15.592 15.0294 15.3107 15.3107C15.0294 15.592 14.6478 15.75 14.25 15.75H3.75C3.35218 15.75 2.97064 15.592 2.68934 15.3107C2.40804 15.0294 2.25 14.6478 2.25 14.25V3.75C2.25 3.35218 2.40804 2.97064 2.68934 2.68934C2.97064 2.40804 3.35218 2.25 3.75 2.25H14.25ZM13.875 13.875V9.9C13.875 9.25155 13.6174 8.62965 13.1589 8.17112C12.7003 7.7126 12.0785 7.455 11.43 7.455C10.7925 7.455 10.05 7.845 9.69 8.43V7.5975H7.5975V13.875H9.69V10.1775C9.69 9.6 10.155 9.1275 10.7325 9.1275C11.011 9.1275 11.278 9.23812 11.475 9.43504C11.6719 9.63195 11.7825 9.89902 11.7825 10.1775V13.875H13.875ZM5.16 6.42C5.49417 6.42 5.81466 6.28725 6.05095 6.05095C6.28725 5.81466 6.42 5.49417 6.42 5.16C6.42 4.4625 5.8575 3.8925 5.16 3.8925C4.82384 3.8925 4.50144 4.02604 4.26374 4.26374C4.02604 4.50144 3.8925 4.82384 3.8925 5.16C3.8925 5.8575 4.4625 6.42 5.16 6.42ZM6.2025 13.875V7.5975H4.125V13.875H6.2025Z" fill="black"/>
</svg>
