<svg width="65" height="64" viewBox="0 0 65 64" fill="none" xmlns="http://www.w3.org/2000/svg">
<g clip-path="url(#clip0_1_180)">
<path d="M17.3159 23.2292C10.3773 25.1572 5.83325 28.3652 5.83325 31.9999C5.83325 37.8932 17.7719 42.6666 32.4999 42.6666C34.5613 42.6666 36.5693 42.5732 38.4946 42.3946" stroke="#61DAFB" stroke-width="4" stroke-linecap="round" stroke-linejoin="round"/>
<path d="M47.6787 40.7706C54.62 38.8453 59.1667 35.6346 59.1667 31.9999C59.1667 26.1066 47.228 21.3333 32.5 21.3333C30.4387 21.3333 28.4307 21.4266 26.5 21.6053" stroke="#61DAFB" stroke-width="4" stroke-linecap="round" stroke-linejoin="round"/>
<path d="M17.3132 40.7653C15.5106 47.7387 16.0199 53.28 19.1666 55.0933C24.2679 58.04 34.3746 50.088 41.7372 37.3333C42.7692 35.5467 43.6919 33.7627 44.4999 32" stroke="#61DAFB" stroke-width="4" stroke-linecap="round" stroke-linejoin="round"/>
<path d="M47.684 23.2427C49.4893 16.2667 48.9826 10.72 45.8333 8.90671C40.732 5.96005 30.6253 13.912 23.2626 26.6667C22.2306 28.4534 21.308 30.24 20.4973 32" stroke="#61DAFB" stroke-width="4" stroke-linecap="round" stroke-linejoin="round"/>
<path d="M32.4999 14.4639C27.3665 9.4186 22.3132 7.08793 19.1665 8.9066C14.0652 11.8506 15.8972 24.5786 23.2625 37.3333C24.2919 39.1199 25.3772 40.8106 26.4945 42.3893" stroke="#61DAFB" stroke-width="4" stroke-linecap="round" stroke-linejoin="round"/>
<path d="M32.5 49.5306C37.636 54.5786 42.6893 56.9119 45.8333 55.0932C50.9347 52.1492 49.1027 39.4212 41.7373 26.6666C40.7373 24.9332 39.6573 23.2452 38.5053 21.6079" stroke="#61DAFB" stroke-width="4" stroke-linecap="round" stroke-linejoin="round"/>
<path d="M31.1667 34.3094C31.47 34.4873 31.8056 34.6034 32.1541 34.651C32.5025 34.6987 32.8569 34.6769 33.1969 34.587C33.5369 34.4972 33.8558 34.3409 34.1351 34.1273C34.4145 33.9137 34.6488 33.6469 34.8247 33.3423C35.0005 33.0378 35.1144 32.7014 35.1597 32.3527C35.2051 32.0039 35.181 31.6497 35.0888 31.3103C34.9967 30.9709 34.8383 30.6531 34.6228 30.3751C34.4074 30.0972 34.139 29.8646 33.8333 29.6908C33.2212 29.3427 32.4962 29.2509 31.8166 29.4355C31.137 29.62 30.558 30.0658 30.2059 30.6756C29.8538 31.2854 29.7572 32.0098 29.9372 32.6906C30.1172 33.3714 30.5592 33.9533 31.1667 34.3094Z" stroke="#61DAFB" stroke-width="4" stroke-linecap="round" stroke-linejoin="round"/>
</g>
<defs>
<clipPath id="clip0_1_180">
<rect width="64" height="64" fill="white" transform="translate(0.5)"/>
</clipPath>
</defs>
</svg>
