<svg width="65" height="64" viewBox="0 0 65 64" fill="none" xmlns="http://www.w3.org/2000/svg">
<g clip-path="url(#clip0_1_193)">
<path d="M31.612 16C24.972 16 20.828 19.2587 19.1667 25.7787C21.6547 22.5173 24.5613 21.2987 27.8787 22.112C29.772 22.576 31.124 23.9253 32.62 25.4187C35.0627 27.8507 37.9533 30.6667 44.0547 30.6667C50.6947 30.6667 54.8387 27.408 56.5 20.888C54.012 24.1493 51.1053 25.368 47.788 24.5547C45.8947 24.0907 44.5427 22.7413 43.0467 21.248C40.604 18.816 37.78 16 31.612 16ZM20.9453 33.3333C14.3053 33.3333 10.1613 36.592 8.5 43.112C10.988 39.8507 13.8947 38.632 17.212 39.4453C19.1053 39.9093 20.4573 41.2587 21.9533 42.752C24.396 45.184 27.22 48 33.388 48C40.028 48 44.172 44.7413 45.8333 38.2213C43.3453 41.4827 40.4387 42.7013 37.1213 41.888C35.228 41.424 33.876 40.0747 32.38 38.5813C29.9373 36.1493 27.1133 33.3333 20.9453 33.3333Z" stroke="#38B2AC" stroke-width="4" stroke-linecap="round" stroke-linejoin="round"/>
</g>
<defs>
<clipPath id="clip0_1_193">
<rect width="64" height="64" fill="white" transform="translate(0.5)"/>
</clipPath>
</defs>
</svg>
